<svg width="124" height="240" viewBox="0 0 124 240" fill="none" xmlns="http://www.w3.org/2000/svg">
<g clip-path="url(#clip0_303_255)">
<path fill-rule="evenodd" clip-rule="evenodd" d="M23.8311 0.274285C26.5433 0.254627 31.0901 0.579392 33.9401 0.998516C36.7906 1.41775 42.1124 2.44341 45.7759 3.2718C49.4395 4.10515 55.4235 5.64847 59.0871 6.70854C62.7507 7.7687 69.5176 9.94258 74.1283 11.5502C78.7384 13.1526 85.6169 15.7231 89.4142 17.2568C93.2106 18.7951 99.2026 21.4965 102.729 23.2619C106.254 25.0271 110.136 27.1593 111.359 27.9929C112.582 28.831 114.531 30.2988 115.694 31.2653C116.853 32.2318 118.662 34.2406 119.708 35.7348C120.758 37.229 122.116 39.8873 122.732 41.6527C123.649 44.2857 123.835 45.8304 123.795 50.2831C123.765 53.6022 123.071 60.3973 122.011 67.7887C121.055 74.4313 119.266 86.1925 118.028 93.9248C116.79 101.657 115.122 112.975 114.323 119.075C113.524 125.179 112.426 134.385 111.889 139.538C111.346 144.691 110.778 150.686 110.625 152.856C110.472 155.027 110.14 160.465 109.884 164.936C109.632 169.409 109.418 179.731 109.408 187.867C109.393 198.665 109.189 203.794 108.657 206.851C108.218 209.356 107.254 212.435 106.253 214.496C105.33 216.394 103.715 218.93 102.665 220.129C101.614 221.327 99.5333 223.199 98.0447 224.293C96.5554 225.383 93.5038 227.12 91.265 228.156C89.0262 229.186 84.7013 230.887 81.6489 231.938C78.5967 232.988 73.2181 234.567 69.6923 235.445C66.1665 236.318 62.9449 237.161 62.5406 237.309C62.1368 237.462 61.6934 237.565 61.5548 237.54C61.4168 237.516 58.8677 237.933 55.885 238.466C52.6403 239.048 46.9925 239.545 41.8296 239.713C34.985 239.935 32.435 239.828 29.5009 239.207C27.4695 238.773 24.4727 237.771 22.8453 236.977C21.2131 236.183 18.8742 234.463 17.6315 233.151C16.2705 231.716 14.9153 229.59 14.2249 227.81C13.4113 225.719 13.0047 223.475 12.8469 220.166C12.6695 216.409 12.9414 213.627 14.2182 206.114C15.0911 200.96 15.902 196.077 16.0154 195.263C16.124 194.449 16.7426 190.119 17.3935 185.647C18.0394 181.175 18.7988 174.297 19.08 170.361C19.3611 166.426 19.5999 159.766 19.6097 155.565C19.6195 151.364 19.403 144.817 19.1269 141.02C18.8558 137.224 18.4021 132.456 18.121 130.418C17.835 128.386 16.8332 122.058 15.8913 116.363C14.9445 110.667 12.2022 96.1324 9.79573 84.0605C7.38962 71.9902 4.85348 59.2355 4.16282 55.7081C3.46752 52.1822 2.30577 45.7442 1.57102 41.4046C0.560258 35.4087 0.232609 31.74 0.203023 26.1186C0.173437 20.2454 0.353244 18.1087 1.07814 15.7614C1.58108 14.1346 2.44899 11.9175 3.00607 10.8326C3.5633 9.74774 5.04255 7.78893 6.28522 6.47719C7.52754 5.1708 9.76014 3.51441 11.2543 2.79904C12.7484 2.07906 15.0784 1.2301 16.4345 0.904634C17.7913 0.579274 21.1196 0.298935 23.8311 0.274285ZM39.107 16.992C36.2025 16.8513 32.811 16.9318 31.5696 17.163C30.3284 17.3991 28.1772 17.9865 26.7951 18.4639C25.4132 18.9413 23.4886 19.8323 22.5234 20.4354C21.5587 21.0434 19.9713 22.3406 19.0062 23.3156C18.0412 24.2956 16.5161 26.4265 15.6265 28.0499C14.6465 29.839 13.6781 32.699 13.1755 35.2821C12.5221 38.6345 12.4112 41.068 12.6625 46.5916C12.8384 50.4617 13.5414 57.2469 14.2249 61.6696C14.9135 66.0924 15.5863 70.5002 15.7271 71.4702C15.8728 72.4399 16.1211 73.7907 16.287 74.4845C16.4478 75.1731 16.6592 76.5321 16.7598 77.5021C16.8562 78.4779 18.3123 87.5229 19.9953 97.6063C21.679 107.693 23.9559 121.606 25.0616 128.517C26.1671 135.427 27.5179 144.587 28.0658 148.869C28.6134 153.149 29.1502 157.672 29.2561 158.921C29.3667 160.168 29.8096 165.934 30.2419 171.739C30.6741 177.544 31.2781 185.912 31.5797 190.335C31.8812 194.758 32.4634 199.961 32.8705 201.896C33.2777 203.831 34.0763 206.661 34.6442 208.179C35.2173 209.697 36.511 212.17 37.5211 213.668C38.5313 215.165 40.2648 217.114 41.3702 218.003C42.4759 218.888 44.3417 220.094 45.5178 220.682C46.6939 221.27 49.1793 222.106 51.0434 222.543C53.4909 223.116 56.0406 223.27 60.217 223.109C63.3924 222.989 67.1257 222.722 68.5088 222.516C69.8909 222.31 71.3657 222.083 71.7779 222.013C72.1899 221.943 72.8715 221.751 73.2833 221.591C73.6954 221.425 74.9438 221.064 76.0495 220.783C77.1556 220.501 79.9811 219.521 82.3329 218.607C84.6849 217.687 88.187 215.898 90.1217 214.627C92.0566 213.355 94.4526 211.328 95.4529 210.117C96.4476 208.911 97.7497 206.968 98.3431 205.792C98.9361 204.616 99.5301 203.146 99.6608 202.523C99.7917 201.899 100.255 200.036 100.687 198.378C101.199 196.393 101.626 191.155 101.937 183.049C102.194 176.274 102.521 168.019 102.662 164.702C102.802 161.384 103.259 154.599 103.681 149.623C104.103 144.65 104.546 139.45 104.667 138.066C104.787 136.684 105.034 134.08 105.21 132.286C105.386 130.492 105.612 128.341 105.713 127.511C105.818 126.682 106.161 123.625 106.477 120.725C106.794 117.825 107.14 114.657 107.245 113.687C107.356 112.714 107.728 108.725 108.08 104.812L110.709 75.4904C111.126 70.6505 111.466 64.3232 111.466 61.4182C111.466 58.4081 111.134 54.7399 110.692 52.8749C110.265 51.0811 109.307 48.5021 108.563 47.1548C107.819 45.803 106.079 43.5613 104.697 42.169C103.315 40.7819 100.6 38.5906 98.6649 37.304C96.7303 36.0175 93.6763 34.1516 91.882 33.1564C90.0877 32.1663 86.4619 30.4029 83.8383 29.2368C81.2147 28.0758 76.691 26.2301 73.7863 25.1396C70.8811 24.0489 65.4596 22.2585 61.7258 21.163C57.9915 20.0623 52.567 18.7368 49.662 18.2091C46.7569 17.6814 42.0117 17.1327 39.107 16.992Z" fill="#0F0F0F"/>
</g>
<defs>
<clipPath id="clip0_303_255">
<rect width="124" height="240" fill="white"/>
</clipPath>
</defs>
</svg>
